<svg width="40" height="40" viewBox="0 0 40 40" fill="none" xmlns="http://www.w3.org/2000/svg">
<path d="M10.179 13.1067L5.01229 18.2734C4.88826 18.3982 4.74075 18.4972 4.57827 18.5647C4.4158 18.6322 4.24157 18.6669 4.06563 18.6667H0.845627L18.8456 0.666748V3.88675C18.8458 4.06269 18.8111 4.23692 18.7436 4.39939C18.6761 4.56187 18.5771 4.70938 18.4523 4.83342L13.2856 10.0001H10.8456C10.6688 10.0001 10.4992 10.0703 10.3742 10.1953C10.2492 10.3204 10.179 10.4899 10.179 10.6667V13.1067Z" fill="#6B0AEA"/>
<path d="M21.9056 4.83342L27.0723 10.0001H29.5123C29.6891 10.0001 29.8587 10.0703 29.9837 10.1953C30.1087 10.3204 30.179 10.4899 30.179 10.6667V13.1067L35.3456 18.2734C35.4697 18.3982 35.6172 18.4972 35.7796 18.5647C35.9421 18.6322 36.1164 18.6669 36.2923 18.6667H39.5123L21.5123 0.666748V3.88675C21.5122 4.06269 21.5468 4.23692 21.6143 4.39939C21.6819 4.56187 21.7808 4.70938 21.9056 4.83342Z" fill="#6B0AEA"/>
<path d="M20.1754 16.6673L16.8425 20.0001L20.1754 23.3329L23.5082 20.0001L20.1754 16.6673Z" fill="#6B0AEA"/>
<path d="M35.3456 21.7267L30.179 26.8934V29.3334C30.179 29.5102 30.1087 29.6798 29.9837 29.8048C29.8587 29.9298 29.6891 30.0001 29.5123 30.0001H27.0723L21.9056 35.1667C21.7808 35.2908 21.6819 35.4383 21.6143 35.6008C21.5468 35.7632 21.5122 35.9375 21.5123 36.1134V39.3334L39.5123 21.3334H36.2923C36.1164 21.3333 35.9421 21.368 35.7796 21.4355C35.6172 21.503 35.4697 21.602 35.3456 21.7267Z" fill="#6B0AEA"/>
<path d="M13.2923 30.0001L18.459 35.1667C18.5825 35.2913 18.6803 35.4391 18.7467 35.6015C18.813 35.764 18.8466 35.9379 18.8456 36.1134V39.3334L0.845627 21.3334H4.07229C4.42303 21.3367 4.75836 21.478 5.00563 21.7267L10.179 26.8934V29.3334C10.179 29.5102 10.2492 29.6798 10.3742 29.8048C10.4992 29.9298 10.6688 30.0001 10.8456 30.0001H13.2923Z" fill="#6B0AEA"/>
<path d="M26.679 18.2734C26.803 18.3982 26.9505 18.4972 27.113 18.5647C27.2755 18.6322 27.4497 18.6669 27.6256 18.6667H30.8456L21.5123 9.33342V12.5534C21.5122 12.7294 21.5468 12.9036 21.6143 13.0661C21.6819 13.2285 21.7808 13.376 21.9056 13.5001L26.679 18.2734Z" fill="#6B0AEA"/>
<path d="M36.7436 7.60077C36.8111 7.76324 36.8458 7.93747 36.8456 8.11341V11.3334L28.8456 3.33342H32.0656C32.2416 3.33328 32.4158 3.36796 32.5783 3.43547C32.7407 3.50297 32.8883 3.60197 33.0123 3.72675L36.4523 7.16675C36.5771 7.29079 36.6761 7.43829 36.7436 7.60077Z" fill="#6B0AEA"/>
<path d="M8.29229 3.33342C8.11635 3.33328 7.94212 3.36796 7.77965 3.43547C7.61717 3.50297 7.46967 3.60197 7.34563 3.72675L3.90563 7.16675C3.78085 7.29079 3.68185 7.43829 3.61435 7.60077C3.54684 7.76324 3.51215 7.93747 3.51229 8.11341V11.3334L11.5123 3.33342H8.29229Z" fill="#6B0AEA"/>
<path d="M3.61435 32.3994C3.54684 32.2369 3.51215 32.0627 3.51229 31.8867V28.6667L11.5123 36.6667H8.29229C8.11635 36.6669 7.94212 36.6322 7.77965 36.5647C7.61717 36.4972 7.46967 36.3982 7.34563 36.2734L3.90563 32.8334C3.78085 32.7094 3.68185 32.5619 3.61435 32.3994Z" fill="#6B0AEA"/>
<path d="M32.0656 36.6667C32.2416 36.6669 32.4158 36.6322 32.5783 36.5647C32.7407 36.4972 32.8883 36.3982 33.0123 36.2734L36.4523 32.8334C36.5771 32.7094 36.6761 32.5619 36.7436 32.3994C36.8111 32.2369 36.8458 32.0627 36.8456 31.8867V28.6667L28.8456 36.6667H32.0656Z" fill="#6B0AEA"/>
<path d="M18.8456 9.33342V12.5467C18.8466 12.7222 18.813 12.8962 18.7467 13.0586C18.6803 13.2211 18.5825 13.3688 18.459 13.4934L13.679 18.2734C13.5549 18.3982 13.4074 18.4972 13.2449 18.5647C13.0825 18.6322 12.9082 18.6669 12.7323 18.6667H9.51229L18.8456 9.33342Z" fill="#6B0AEA"/>
<path d="M9.51229 21.3334L18.8456 30.6667V27.4534C18.8441 27.1004 18.7027 26.7623 18.4523 26.5134L13.679 21.7334C13.5555 21.6074 13.4082 21.5072 13.2457 21.4385C13.0832 21.3699 12.9087 21.3341 12.7323 21.3334H9.51229Z" fill="#6B0AEA"/>
<path d="M21.6143 26.9341C21.6819 26.7716 21.7808 26.6241 21.9056 26.5001L26.679 21.7267C26.803 21.602 26.9505 21.503 27.113 21.4355C27.2755 21.368 27.4497 21.3333 27.6256 21.3334H30.8456L21.5123 30.6667V27.4467C21.5122 27.2708 21.5468 27.0966 21.6143 26.9341Z" fill="#6B0AEA"/>
</svg>
