<svg id="Icons" xmlns="http://www.w3.org/2000/svg" viewBox="0 0 72 72"><defs><style>.cls-1{fill:#6b0aea;}.cls-2{fill:none;}</style></defs><path class="cls-1" d="M19.73,43.34a19.36,19.36,0,0,1-5.55-9.66,7.47,7.47,0,0,1-4.08.07,23.27,23.27,0,0,0,6,11.67A3,3,0,0,1,17,47.48V59h0v2a4,4,0,0,0,4-4V46.25A4,4,0,0,0,19.73,43.34Z"/><path class="cls-1" d="M61,35.9l-3.94-7.07a8.17,8.17,0,0,1-1-2.78,23.29,23.29,0,0,0-44-7A7.4,7.4,0,0,1,16,20.17a19.26,19.26,0,0,1,34.34.75,18.77,18.77,0,0,1,1,2.5,20.39,20.39,0,0,1,.87,4.37A3,3,0,0,0,52.6,29l4.17,7.47A1,1,0,0,1,55.89,38H52.5a.5.5,0,0,0-.5.5v6.44a11,11,0,0,1-1.16,4.9A3.9,3.9,0,0,1,47.35,52H37.24a3,3,0,0,1-2.12-.88L25,41v3.34a4,4,0,0,0,1.17,2.83l9.7,9.7A7.27,7.27,0,0,1,38,62a4,4,0,0,0,4,4h0V62h0V57a1,1,0,0,1,1-1h5a7.6,7.6,0,0,0,6.45-4.42A14.77,14.77,0,0,0,56,45V42h1.34a3,3,0,0,0,2.54-1.4l1-1.64A3,3,0,0,0,61,35.9Z"/><path class="cls-1" d="M16.75,28h2a3,3,0,0,1,2.12.88l4.53,4.53a2,2,0,0,0,1.42.59h2.93l2.12,2.12A3,3,0,0,0,34,37h3l-5.41-5.41A2,2,0,0,0,30.17,31H27.23l-2.57-2.57a.25.25,0,0,1,.17-.43h7.23a2,2,0,0,1,1.41.59l4.83,4.82a2,2,0,0,0,1.41.59H45a3,3,0,0,0-3-3H40.12l-2.58-2.57a.25.25,0,0,1,.18-.43h1.57a2,2,0,0,0,1.41-.59L46.12,22h-3a3,3,0,0,0-2.12.88L38.88,25H24.83a.25.25,0,0,1-.17-.43L27.23,22h6.94a2,2,0,0,0,1.42-.59L41,16H38a3,3,0,0,0-2.12.88L33.77,19H26.83a2,2,0,0,0-1.42.59l-4.53,4.53a3,3,0,0,1-2.12.88h-2a5,5,0,1,0,0,3ZM10,26.5a2,2,0,1,1,2,2A2,2,0,0,1,10,26.5Z"/><rect class="cls-2" width="72" height="72"/></svg>