<svg width="39" height="36" viewBox="0 0 39 36" fill="none" xmlns="http://www.w3.org/2000/svg">
<path d="M29.7155 3.63103C31.701 5.5369 33.0304 8.02372 33.5123 10.7334C35.2802 11.3211 36.7808 12.5197 37.7447 14.114C38.7086 15.7084 39.0727 17.5941 38.7716 19.4327C38.4706 21.2713 37.524 22.9423 36.102 24.146C34.6799 25.3496 32.8753 26.007 31.0123 26.0001H30.8456V25.5867C30.846 25.0208 31.0264 24.4696 31.3608 24.013C31.6952 23.5563 32.1662 23.2179 32.7056 23.0467L32.8456 23.0001C33.9775 22.5725 34.9235 21.7612 35.5185 20.7077C36.1136 19.6541 36.32 18.4252 36.1019 17.235C35.8837 16.0449 35.2547 14.9691 34.3246 14.1951C33.3945 13.4212 32.2223 12.9983 31.0123 13.0001C31.0088 10.52 30.1135 8.12386 28.4898 6.24919C26.8661 4.37452 24.6223 3.14635 22.1681 2.78894C19.7139 2.43152 17.2131 2.9687 15.1221 4.30239C13.0312 5.63608 11.4896 7.67731 10.7789 10.0534H9.51228C7.94067 10.0814 6.4295 10.6638 5.24559 11.6977C4.06168 12.7317 3.2812 14.1507 3.04195 15.7043C2.80269 17.2578 3.12007 18.8459 3.93803 20.1882C4.75598 21.5305 6.02191 22.5405 7.51228 23.0401C8.07993 23.1935 8.58216 23.5277 8.94301 23.992C9.30386 24.4563 9.50369 25.0254 9.51228 25.6134V26.0001C7.16861 25.8796 4.95633 24.8806 3.31616 23.2022C1.67598 21.5237 0.728288 19.289 0.661865 16.9432C0.595442 14.5974 1.41516 12.3126 2.95774 10.5441C4.50031 8.77551 6.65251 7.65297 8.98561 7.40006C10.1732 4.91728 12.1181 2.87545 14.5402 1.5686C16.9623 0.261752 19.7367 -0.242675 22.4638 0.127957C25.1909 0.498589 27.73 1.72516 29.7155 3.63103Z" fill="#6B0AEA"/>
<path fill-rule="evenodd" clip-rule="evenodd" d="M11.5123 25.6934V18.0001L20.179 14.0001L28.8456 18.0001V25.6934C28.8456 33.2734 20.179 36.0001 20.179 36.0001C20.179 36.0001 11.5123 33.2734 11.5123 25.6934ZM26.179 25.7067V19.7067L20.179 16.9267L14.179 19.6934V25.6934C14.179 27.9134 15.239 29.8601 17.339 31.4734C18.2166 32.1391 19.1699 32.6985 20.179 33.1401C21.1874 32.7027 22.1407 32.1477 23.019 31.4867C25.119 29.8734 26.179 27.9267 26.179 25.7067Z" fill="#6B0AEA"/>
</svg>
