<svg width="38" height="32" viewBox="0 0 38 32" fill="none" xmlns="http://www.w3.org/2000/svg">
<path fill-rule="evenodd" clip-rule="evenodd" d="M7.28563 4.46659C6.87874 4.79784 6.37031 4.97908 5.84563 4.97992V4.99992C5.38414 4.99992 4.93302 4.86307 4.5493 4.60668C4.16559 4.35029 3.86652 3.98588 3.68991 3.55951C3.51331 3.13315 3.4671 2.664 3.55713 2.21138C3.64717 1.75875 3.8694 1.34299 4.19572 1.01667C4.52204 0.690348 4.9378 0.468119 5.39042 0.378087C5.84304 0.288055 6.3122 0.334263 6.73856 0.510867C7.16492 0.687472 7.52934 0.986541 7.78573 1.37026C8.04212 1.75397 8.17897 2.2051 8.17897 2.66659C8.17481 2.9161 8.13208 3.16347 8.0523 3.39992L11.0723 5.51325C11.4785 5.18072 11.9873 4.99902 12.5123 4.99902C13.0373 4.99902 13.5461 5.18072 13.9523 5.51325L16.9723 3.39992C16.8925 3.16347 16.8498 2.9161 16.8456 2.66659C16.8456 2.04775 17.0915 1.45426 17.5291 1.01667C17.9666 0.579086 18.5601 0.333253 19.179 0.333253C19.7978 0.333253 20.3913 0.579086 20.8289 1.01667C21.2665 1.45426 21.5123 2.04775 21.5123 2.66659C21.5081 2.9161 21.4654 3.16347 21.3856 3.39992L24.4056 5.51325C24.8119 5.18072 25.3207 4.99902 25.8456 4.99902C26.3706 4.99902 26.8794 5.18072 27.2856 5.51325L30.3056 3.39992C30.2259 3.16347 30.1831 2.9161 30.179 2.66659C30.179 2.2051 30.3158 1.75397 30.5722 1.37026C30.8286 0.986541 31.193 0.687472 31.6194 0.510867C32.0457 0.334263 32.5149 0.288055 32.9675 0.378087C33.4201 0.468119 33.8359 0.690348 34.1622 1.01667C34.4885 1.34299 34.7108 1.75875 34.8008 2.21138C34.8908 2.664 34.8446 3.13315 34.668 3.55951C34.4914 3.98588 34.1923 4.35029 33.8086 4.60668C33.4249 4.86307 32.9738 4.99992 32.5123 4.99992C31.9876 4.99908 31.4792 4.81784 31.0723 4.48659L28.0523 6.60659C28.1321 6.84073 28.1749 7.08591 28.179 7.33325C28.179 7.95209 27.9331 8.54558 27.4955 8.98317C27.058 9.42075 26.4645 9.66659 25.8456 9.66659C25.2268 9.66659 24.6333 9.42075 24.1957 8.98317C23.7581 8.54558 23.5123 7.95209 23.5123 7.33325C23.5164 7.08591 23.5591 6.84073 23.639 6.60659L20.619 4.48659C20.2127 4.81912 19.7039 5.00082 19.179 5.00082C18.654 5.00082 18.1452 4.81912 17.739 4.48659L14.719 6.60659C14.7988 6.84073 14.8415 7.08591 14.8456 7.33325C14.8456 7.95209 14.5998 8.54558 14.1622 8.98317C13.7246 9.42075 13.1311 9.66659 12.5123 9.66659C11.8935 9.66659 11.3 9.42075 10.8624 8.98317C10.4248 8.54558 10.179 7.95209 10.179 7.33325C10.181 7.07919 10.2237 6.82709 10.3056 6.58659L7.28563 4.46659ZM31.6323 2.17992C31.5759 2.28801 31.5398 2.40549 31.5256 2.52659C31.5167 2.57272 31.5122 2.6196 31.5123 2.66659C31.5046 2.89408 31.5743 3.11747 31.7099 3.3003C31.8455 3.48312 32.039 3.61459 32.259 3.67325C32.3322 3.67977 32.4058 3.67977 32.479 3.67325C32.7442 3.67325 32.9985 3.5679 33.1861 3.38036C33.3736 3.19282 33.479 2.93847 33.479 2.67325C33.479 2.40804 33.3736 2.15368 33.1861 1.96615C32.9985 1.77861 32.7442 1.67325 32.479 1.67325C32.3604 1.67543 32.2432 1.69798 32.1323 1.73992C32.0274 1.78057 31.9304 1.83923 31.8456 1.91325C31.7619 1.99126 31.69 2.0811 31.6323 2.17992ZM26.233 6.39124C26.1103 6.33974 25.9787 6.31323 25.8456 6.31325C25.7137 6.31498 25.5835 6.34279 25.4624 6.39508C25.3413 6.44737 25.2317 6.52309 25.14 6.6179C25.0483 6.71271 24.9763 6.82473 24.928 6.9475C24.8798 7.07027 24.8563 7.20137 24.859 7.33325C24.8557 7.37319 24.8557 7.41332 24.859 7.45325C24.8731 7.57434 24.9092 7.69183 24.9656 7.79992C25.0217 7.89989 25.0937 7.98998 25.179 8.06659C25.2915 8.15136 25.4212 8.21052 25.559 8.23992C25.6686 8.27706 25.7832 8.2973 25.899 8.29992C26.0147 8.2973 26.1293 8.27706 26.239 8.23992C26.3439 8.19927 26.4409 8.14061 26.5256 8.06659C26.6109 7.98998 26.6829 7.89989 26.739 7.79992C26.7954 7.69183 26.8315 7.57434 26.8456 7.45325C26.8489 7.41332 26.8489 7.37319 26.8456 7.33325C26.8483 7.20026 26.8244 7.06807 26.7753 6.94442C26.7263 6.82078 26.653 6.70817 26.5599 6.61318C26.4668 6.51819 26.3556 6.44274 26.233 6.39124ZM18.5123 1.91325C18.4286 1.99126 18.3567 2.0811 18.299 2.17992H18.1923C18.1197 2.31556 18.0795 2.46621 18.0751 2.62001C18.0706 2.7738 18.1019 2.92653 18.1666 3.06615C18.2312 3.20577 18.3274 3.32847 18.4476 3.42457C18.5677 3.52067 18.7086 3.58754 18.859 3.61992C18.9322 3.62644 19.0058 3.62644 19.079 3.61992C19.1522 3.62644 19.2258 3.62644 19.299 3.61992C19.4494 3.58754 19.5902 3.52067 19.7104 3.42457C19.8305 3.32847 19.9267 3.20577 19.9914 3.06615C20.056 2.92653 20.0873 2.7738 20.0829 2.62001C20.0784 2.46621 20.0383 2.31556 19.9656 2.17992C19.9079 2.0811 19.836 1.99126 19.7523 1.91325C19.6676 1.83923 19.5705 1.78057 19.4656 1.73992C19.251 1.65785 19.0136 1.65785 18.799 1.73992C18.6941 1.78057 18.597 1.83923 18.5123 1.91325ZM12.8997 6.39124C12.777 6.33974 12.6453 6.31323 12.5123 6.31325C12.3804 6.31498 12.2502 6.34279 12.1291 6.39508C12.0079 6.44737 11.8984 6.52309 11.8067 6.6179C11.715 6.71271 11.6429 6.82473 11.5947 6.9475C11.5465 7.07027 11.523 7.20137 11.5256 7.33325C11.5224 7.37319 11.5224 7.41332 11.5256 7.45325C11.5398 7.57434 11.5759 7.69183 11.6323 7.79992C11.6883 7.89989 11.7604 7.98998 11.8456 8.06659C11.9582 8.15136 12.0878 8.21052 12.2256 8.23992C12.3353 8.27706 12.4499 8.2973 12.5656 8.29992C12.6814 8.2973 12.796 8.27706 12.9056 8.23992C13.0105 8.19927 13.1076 8.14061 13.1923 8.06659C13.2775 7.98998 13.3496 7.89989 13.4056 7.79992C13.462 7.69183 13.4982 7.57434 13.5123 7.45325C13.5156 7.41332 13.5156 7.37319 13.5123 7.33325C13.515 7.20026 13.4911 7.06807 13.442 6.94442C13.3929 6.82078 13.3197 6.70817 13.2266 6.61318C13.1334 6.51819 13.0223 6.44274 12.8997 6.39124ZM6.1923 1.71325C6.08142 1.67131 5.96416 1.64876 5.84563 1.64659L5.80563 1.59325C5.54042 1.59325 5.28606 1.69861 5.09853 1.88615C4.91099 2.07368 4.80563 2.32804 4.80563 2.59325C4.80563 2.85847 4.91099 3.11282 5.09853 3.30036C5.28606 3.4879 5.54042 3.59325 5.80563 3.59325C5.87882 3.59977 5.95245 3.59977 6.02563 3.59325C6.24489 3.54101 6.44028 3.4167 6.58049 3.24022C6.72071 3.06374 6.79764 2.84531 6.79897 2.61992C6.80225 2.57999 6.80225 2.53985 6.79897 2.49992C6.78484 2.37883 6.74869 2.26134 6.6923 2.15325C6.63457 2.05444 6.5627 1.9646 6.47897 1.88659C6.39423 1.81257 6.29722 1.75391 6.1923 1.71325Z" fill="#6B0AEA"/>
<path d="M4.5123 11.8666V26.6666H7.17897V8.66658L4.90563 10.9399C4.65847 11.1855 4.51728 11.5182 4.5123 11.8666Z" fill="#6B0AEA"/>
<path d="M11.179 16.5333V26.6666H13.8456V13.3333L11.5723 15.6066C11.3251 15.8522 11.184 16.1848 11.179 16.5333Z" fill="#6B0AEA"/>
<path d="M17.8456 26.6666V11.8666C17.8506 11.5182 17.9918 11.1855 18.239 10.9399L20.5123 8.66658V26.6666H17.8456Z" fill="#6B0AEA"/>
<path d="M24.5123 16.5333V26.6666H27.179V13.3333L24.9056 15.6066C24.6585 15.8522 24.5173 16.1848 24.5123 16.5333Z" fill="#6B0AEA"/>
<path d="M31.179 26.6666V11.8666C31.184 11.5182 31.3251 11.1855 31.5723 10.9399L33.8456 8.66658V26.6666H31.179Z" fill="#6B0AEA"/>
<path d="M35.5723 29.0466C35.3196 28.7994 34.9791 28.6628 34.6256 28.6666H3.74563C3.56969 28.6664 3.39546 28.7011 3.23299 28.7686C3.07051 28.8361 2.923 28.9351 2.79897 29.0599L0.512299 31.3332H37.8456L35.5723 29.0466Z" fill="#6B0AEA"/>
</svg>
