<svg id="Icons" xmlns="http://www.w3.org/2000/svg" viewBox="0 0 72 72"><defs><style>.cls-1{fill:#6b0aea;}.cls-2{fill:none;}</style></defs><circle class="cls-1" cx="60" cy="60" r="2"/><circle class="cls-1" cx="60" cy="12" r="2"/><circle class="cls-1" cx="12" cy="12" r="2"/><circle class="cls-1" cx="12" cy="60" r="2"/><path class="cls-1" d="M60.66,52H55a2,2,0,0,1-1.42-.59L48.1,46a.25.25,0,0,1,.18-.43h3.64l1.86,1.86a2,2,0,0,0,1.41.59h8.36l-2.11-2.11A3,3,0,0,0,59.32,45H55.61l-1.86-1.86a2,2,0,0,0-1.41-.59H45.93a3,3,0,0,1-2.13-.88l-1.91-1.91a7,7,0,0,0,0-7.54l1.91-1.91a3,3,0,0,1,2.13-.88h6.41a2,2,0,0,0,1.42-.59L55.61,27h3.7a3,3,0,0,0,2.12-.88L63.55,24H55.19a2,2,0,0,0-1.41.59l-1.86,1.86H48.28A.25.25,0,0,1,48.1,26l5.44-5.44A2,2,0,0,1,55,20h5.7a3,3,0,0,0,2.13-.88L64.9,17H55V7.1L52.89,9.21A3,3,0,0,0,52,11.34V17a2,2,0,0,1-.59,1.42L46,23.9a.25.25,0,0,1-.43-.18V20.08l1.86-1.86A2,2,0,0,0,48,16.81V8.45l-2.11,2.11A3,3,0,0,0,45,12.68v3.71l-1.86,1.86a2,2,0,0,0-.59,1.41v6.41a3,3,0,0,1-.88,2.13l-1.91,1.91a7,7,0,0,0-7.54,0L30.32,28.2a3,3,0,0,1-.88-2.13V19.66a2,2,0,0,0-.59-1.42L27,16.39v-3.7a3,3,0,0,0-.88-2.12L24,8.45v8.36a2,2,0,0,0,.59,1.41l1.86,1.86v3.64a.25.25,0,0,1-.43.18l-5.44-5.44A2,2,0,0,1,20,17v-5.7a3,3,0,0,0-.88-2.13L17,7.1V17H7.1l2.11,2.11a3,3,0,0,0,2.13.88H17a2,2,0,0,1,1.42.59L23.9,26a.25.25,0,0,1-.18.43H20.08l-1.86-1.86A2,2,0,0,0,16.81,24H8.45l2.11,2.11a3,3,0,0,0,2.12.88h3.71l1.86,1.86a2,2,0,0,0,1.41.59h6.41a3,3,0,0,1,2.13.88l1.91,1.91a7,7,0,0,0,0,7.54L28.2,41.68a3,3,0,0,1-2.13.88H19.66a2,2,0,0,0-1.42.59L16.39,45h-3.7a3,3,0,0,0-2.12.88L8.45,48h8.36a2,2,0,0,0,1.41-.59l1.86-1.86h3.64a.25.25,0,0,1,.18.43l-5.44,5.44A2,2,0,0,1,17,52h-5.7a3,3,0,0,0-2.13.88L7.1,55H17v9.9l2.11-2.11A3,3,0,0,0,20,60.66V55a2,2,0,0,1,.59-1.42L26,48.1a.25.25,0,0,1,.43.18v3.64l-1.86,1.86A2,2,0,0,0,24,55.19v8.36l2.11-2.11A3,3,0,0,0,27,59.32V55.61l1.86-1.86a2,2,0,0,0,.59-1.41V45.93a3,3,0,0,1,.88-2.13l1.91-1.91a7,7,0,0,0,7.54,0l1.91,1.91a3,3,0,0,1,.88,2.13v6.41a2,2,0,0,0,.59,1.42L45,55.61v3.7a3,3,0,0,0,.88,2.12L48,63.55V55.19a2,2,0,0,0-.59-1.41l-1.86-1.86V48.28A.25.25,0,0,1,46,48.1l5.44,5.44A2,2,0,0,1,52,55v5.7a3,3,0,0,0,.88,2.13L55,64.9V55h9.9l-2.11-2.11A3,3,0,0,0,60.66,52ZM39.92,36.81h0a4,4,0,0,1-2.36,2.87h0a4.32,4.32,0,0,1-.72.23h0A4.28,4.28,0,0,1,36,40a4,4,0,0,1-3.68-2.44h0a4.52,4.52,0,0,1-.23-.71s0,0,0,0a4.14,4.14,0,0,1,0-1.62h0a4,4,0,0,1,2.35-2.86h0A3.89,3.89,0,0,1,36,32a4.28,4.28,0,0,1,.81.08h0a4,4,0,0,1,2.85,2.35h0a4.52,4.52,0,0,1,.23.71s0,0,0,0a4.14,4.14,0,0,1,0,1.62Z"/><rect class="cls-2" width="72" height="72"/></svg>