<svg width="38" height="37" viewBox="0 0 38 37" fill="none" xmlns="http://www.w3.org/2000/svg">
<path fill-rule="evenodd" clip-rule="evenodd" d="M23.8733 9.93295C24.1776 10.1089 24.4302 10.3619 24.6056 10.6666L37.8856 33.6666H36.3456C35.8768 33.6673 35.4161 33.5444 35.01 33.3103C34.6039 33.0762 34.2666 32.7392 34.0322 32.3333L23.4522 13.9999C23.3936 13.8989 23.3095 13.815 23.2083 13.7567C23.1071 13.6985 22.9923 13.6678 22.8756 13.6678C22.7588 13.6678 22.644 13.6985 22.5428 13.7567C22.4416 13.815 22.3575 13.8989 22.2989 13.9999L21.9122 14.6666C21.8537 14.7679 21.8229 14.8829 21.8229 14.9999C21.8229 15.1169 21.8537 15.2319 21.9122 15.3333L29.2456 27.9999C29.4211 28.3041 29.5136 28.6491 29.5135 29.0002C29.5134 29.3514 29.4209 29.6964 29.2452 30.0005C29.0695 30.3046 28.8169 30.557 28.5127 30.7325C28.2085 30.9079 27.8634 31.0001 27.5122 30.9999H0.93222L1.70555 29.6666C1.93937 29.2616 2.27557 28.9252 2.68044 28.6912C3.0853 28.4572 3.54459 28.3337 4.01222 28.3333H25.1856C25.3022 28.3326 25.4167 28.3012 25.5175 28.2424C25.6183 28.1836 25.7019 28.0994 25.7599 27.9982C25.8179 27.897 25.8484 27.7823 25.8482 27.6656C25.848 27.5489 25.8172 27.4343 25.7589 27.3333L25.3722 26.6666C25.3466 26.6131 25.3103 26.5655 25.2656 26.5266C25.1414 26.4034 24.9738 26.334 24.7989 26.3333H10.1789C9.83006 26.3327 9.48745 26.2408 9.18508 26.0669C8.88271 25.893 8.63108 25.643 8.45519 25.3417C8.2793 25.0405 8.18526 24.6985 8.1824 24.3497C8.17954 24.0008 8.26796 23.6573 8.43889 23.3533L21.5122 0.686585L21.7189 0.333252L22.4856 1.66659C22.7196 2.07197 22.8428 2.53182 22.8428 2.99992C22.8428 3.46802 22.7196 3.92787 22.4856 4.33325L11.9056 22.6199C11.8472 22.721 11.8164 22.8356 11.8162 22.9523C11.8161 23.0689 11.8465 23.1836 11.9045 23.2849C11.9626 23.3861 12.0462 23.4703 12.147 23.5291C12.2477 23.5879 12.3622 23.6192 12.4789 23.6199H13.2322C13.2898 23.6265 13.348 23.6265 13.4056 23.6199L13.4989 23.5799H13.5656C13.6647 23.5187 13.7471 23.434 13.8056 23.3333L21.1389 10.6666C21.3143 10.3619 21.5668 10.1089 21.8711 9.93295C22.1754 9.757 22.5207 9.66436 22.8722 9.66436C23.2237 9.66436 23.569 9.757 23.8733 9.93295ZM23.1406 23.1648C23.1817 22.9953 23.1548 22.8165 23.0656 22.6666L20.7389 18.6199C20.7065 18.5671 20.6685 18.5179 20.6256 18.4733C20.5527 18.4017 20.4643 18.3479 20.3673 18.3159C20.2703 18.284 20.1673 18.2747 20.0661 18.2889C19.965 18.303 19.8684 18.3403 19.784 18.3977C19.6995 18.4551 19.6293 18.5311 19.5789 18.6199L17.2722 22.6199C17.2403 22.6735 17.2177 22.7321 17.2056 22.7933C17.1808 22.8931 17.1795 22.9973 17.2018 23.0977C17.224 23.1981 17.2692 23.292 17.3337 23.372C17.3983 23.4521 17.4805 23.5161 17.5739 23.5591C17.6673 23.6021 17.7694 23.6229 17.8722 23.6199H22.4989C22.5607 23.6301 22.6237 23.6301 22.6856 23.6199H22.7389L22.8456 23.5733C22.9935 23.4809 23.0995 23.3343 23.1406 23.1648Z" fill="#6B0AEA"/>
<path d="M15.6723 36.3333C15.142 36.3328 14.6337 36.1218 14.259 35.7466L12.179 33.6666H28.179L26.0923 35.7466C25.7176 36.1218 25.2092 36.3328 24.679 36.3333H15.6723Z" fill="#6B0AEA"/>
<path d="M35.3324 19.7532C35.4684 19.2422 35.3965 18.6981 35.1324 18.2399L30.6324 10.4332C30.5005 10.2049 30.3249 10.005 30.1155 9.84478C29.9062 9.6846 29.6672 9.5674 29.4124 9.49991L26.5724 8.73991L34.5724 22.5999L35.3324 19.7532Z" fill="#6B0AEA"/>
<path d="M13.7856 8.73324L5.78557 22.5932L5.02557 19.7466C4.88953 19.2355 4.96144 18.6914 5.22557 18.2332L9.73223 10.4266C9.99823 9.96939 10.4345 9.6362 10.9456 9.4999L13.7856 8.73324Z" fill="#6B0AEA"/>
</svg>
