<svg width="40" height="40" viewBox="0 0 40 40" fill="none" xmlns="http://www.w3.org/2000/svg">
<path d="M4.84562 4V22L2.57229 19.7267C2.44751 19.6026 2.34851 19.4551 2.28101 19.2926C2.2135 19.1302 2.17882 18.9559 2.17896 18.78V5.33333L7.51229 0H28.8456L34.179 5.33333V9.33333H31.5123V4C31.5123 3.64638 31.3718 3.30724 31.1218 3.05719C30.8717 2.80714 30.5326 2.66667 30.179 2.66667H6.17896C5.82533 2.66667 5.4862 2.80714 5.23615 3.05719C4.9861 3.30724 4.84562 3.64638 4.84562 4Z" fill="#6B0AEA"/>
<path d="M3.39896 26C3.0459 25.9985 2.70786 25.8571 2.45896 25.6067L0.178955 23.3333H19.5123V26H3.39896Z" fill="#6B0AEA"/>
<path d="M31.8456 34.6667C31.8456 35.219 31.3979 35.6667 30.8456 35.6667C30.2933 35.6667 29.8456 35.219 29.8456 34.6667C29.8456 34.1144 30.2933 33.6667 30.8456 33.6667C31.3979 33.6667 31.8456 34.1144 31.8456 34.6667Z" fill="#6B0AEA"/>
<path d="M29.5856 27.7933L30.4323 28.8267L30.7256 29.1866L30.8456 29.3333L31.2589 28.8267L32.1056 27.7933C31.7532 27.4958 31.3068 27.3326 30.8456 27.3326C30.3844 27.3326 29.938 27.4958 29.5856 27.7933Z" fill="#6B0AEA"/>
<path d="M28.7456 26.7667L27.8923 25.7267C28.7257 25.0454 29.7691 24.6733 30.8456 24.6733C31.9221 24.6733 32.9654 25.0454 33.7989 25.7267L32.9456 26.7667C32.3578 26.2717 31.614 26.0002 30.8456 26.0002C30.0771 26.0002 29.3334 26.2717 28.7456 26.7667Z" fill="#6B0AEA"/>
<path d="M26.179 23.66L27.0456 24.6667C28.1177 23.7893 29.4603 23.3099 30.8456 23.3099C32.2309 23.3099 33.5736 23.7893 34.6456 24.6667L35.5123 23.66C34.2027 22.5899 32.5635 22.0054 30.8723 22.0054C29.1811 22.0054 27.5419 22.5899 26.2323 23.66H26.179Z" fill="#6B0AEA"/>
<path fill-rule="evenodd" clip-rule="evenodd" d="M34.179 12H27.5123L22.179 17.3333V34.6667L27.5123 40H34.179L39.5123 34.6667V17.3333L34.179 12ZM36.8456 36C36.8456 36.3536 36.7051 36.6928 36.4551 36.9428C36.2051 37.1929 35.8659 37.3333 35.5123 37.3333H26.179C25.8253 37.3333 25.4862 37.1929 25.2361 36.9428C24.9861 36.6928 24.8456 36.3536 24.8456 36V16C24.8456 15.6464 24.9861 15.3072 25.2361 15.0572C25.4862 14.8071 25.8253 14.6667 26.179 14.6667H28.179L29.119 15.6067C29.243 15.7314 29.3905 15.8304 29.553 15.8979C29.7155 15.9655 29.8897 16.0001 30.0656 16H32.2923C32.4682 16.0001 32.6425 15.9655 32.8049 15.8979C32.9674 15.8304 33.1149 15.7314 33.239 15.6067L34.179 14.6667H35.5123C35.8659 14.6667 36.2051 14.8071 36.4551 15.0572C36.7051 15.3072 36.8456 15.6464 36.8456 16V36Z" fill="#6B0AEA"/>
<path d="M18.179 16L16.7723 14.5933C16.9552 14.4054 17.1739 14.256 17.4155 14.1541C17.6571 14.0522 17.9167 13.9998 18.179 14C18.7079 14.004 19.2136 14.2173 19.5856 14.5933L18.179 16Z" fill="#6B0AEA"/>
<path d="M14.879 12.7L15.8257 13.6467C16.4505 13.0238 17.2967 12.6741 18.179 12.6741C19.0612 12.6741 19.9075 13.0238 20.5323 13.6467L21.5123 12.7C21.079 12.2666 20.5645 11.9228 19.9983 11.6883C19.4321 11.4537 18.8252 11.333 18.2123 11.333C17.5994 11.333 16.9926 11.4537 16.4264 11.6883C15.8601 11.9228 15.3457 12.2666 14.9123 12.7H14.879Z" fill="#6B0AEA"/>
<path d="M18.1789 10.0053C16.5889 10.0053 15.0639 10.6364 13.9389 11.76L12.9989 10.82C14.3738 9.44808 16.2367 8.67757 18.1789 8.67757C20.1212 8.67757 21.9841 9.44808 23.3589 10.82L22.4189 11.76C21.2939 10.6364 19.7689 10.0053 18.1789 10.0053Z" fill="#6B0AEA"/>
</svg>
