<svg id="Icons" xmlns="http://www.w3.org/2000/svg" viewBox="0 0 72 72"><defs><style>.cls-1{fill:#6b0aea;}.cls-2{fill:none;}</style></defs><path class="cls-1" d="M56,25a9,9,0,1,0-9-9A9,9,0,0,0,56,25Zm0-14a5,5,0,1,1-5,5A5,5,0,0,1,56,11Z"/><path class="cls-1" d="M56,47a9,9,0,1,0,9,9A9,9,0,0,0,56,47Zm0,14a5,5,0,1,1,5-5A5,5,0,0,1,56,61Z"/><circle class="cls-1" cx="56" cy="16" r="2"/><circle class="cls-1" cx="56" cy="56" r="2"/><circle class="cls-1" cx="16" cy="36" r="2"/><path class="cls-1" d="M16,27a9,9,0,1,0,9,9A9,9,0,0,0,16,27Zm0,14a5,5,0,1,1,5-5A5,5,0,0,1,16,41Z"/><path class="cls-1" d="M50.85,45.18a11.73,11.73,0,0,1,4-1.12,21.09,21.09,0,0,0-9-8.06,21.14,21.14,0,0,0,9-8.06,11.73,11.73,0,0,1-4-1.12A17,17,0,0,1,37,34h-9.2a11.2,11.2,0,0,1,0,4H37A17,17,0,0,1,50.85,45.18Z"/><rect class="cls-2" width="72" height="72"/></svg>