<svg width="512" height="512" xmlns="http://www.w3.org/2000/svg" xmlns:svg="http://www.w3.org/2000/svg">
 <g fill="#ffffff">
  <title>Layer 1</title>
  <path id="svg_1" d="m226,512c-49.626,0 -90,-40.374 -90,-90l0,-302c0,-66.168 53.832,-120 120,-120s120,53.832 120,120l0,302l-30,0l0,-302c0,-49.626 -40.374,-90 -90,-90s-90,40.374 -90,90l0,302c0,33.084 26.916,60 60,60s60,-26.916 60,-60l0,-242c0,-16.542 -13.458,-30 -30,-30s-30,13.458 -30,30l0,242l-30,0l0,-242c0,-33.084 26.916,-60 60,-60s60,26.916 60,60l0,242c0,49.626 -40.374,90 -90,90z"/>
 </g>
</svg>