<svg width="512" height="512" xmlns="http://www.w3.org/2000/svg" xmlns:svg="http://www.w3.org/2000/svg">
 <g fill="#ffffff">
  <title>Layer 1</title>
  <g id="svg_1">
   <g id="svg_2">
    <path id="svg_3" d="m437.02,74.981c-48.352,-48.352 -112.639,-74.981 -181.02,-74.981s-132.666,26.629 -181.019,74.981c-48.351,48.352 -74.98,112.639 -74.98,181.019s26.629,132.667 74.981,181.02c48.352,48.351 112.639,74.98 181.019,74.98c42.42,0 84.448,-10.595 121.539,-30.638c7.483,-4.043 10.271,-13.387 6.227,-20.871c-4.042,-7.482 -13.385,-10.27 -20.87,-6.227c-32.609,17.621 -69.573,26.934 -106.896,26.934c-124.175,0 -225.199,-101.023 -225.199,-225.198s101.024,-225.198 225.198,-225.198c124.175,0 225.198,101.024 225.198,225.198c0,29.389 -7.139,64.356 -13.546,77.359c-5.682,11.53 -21.78,27.768 -39.78,27.768c-23.299,0 -42.255,-18.955 -42.255,-42.254l0,-162.389c0,-8.505 -6.896,-15.401 -15.401,-15.401s-15.401,6.895 -15.401,15.401l0,15.736c-23.794,-28.021 -59.26,-45.837 -98.815,-45.837c-71.47,0 -129.617,58.146 -129.617,129.617c0,71.47 58.145,129.617 129.617,129.617c40.84,0 77.322,-18.991 101.097,-48.601c8.089,31.535 36.752,54.912 70.774,54.912c29.711,0 56.402,-22.615 67.41,-44.954c9.375,-19.024 16.718,-58.984 16.718,-90.973c0.001,-68.381 -26.628,-132.668 -74.979,-181.02zm-181.02,279.834c-54.486,0 -98.815,-44.328 -98.815,-98.815c0,-54.487 44.328,-98.815 98.815,-98.815c54.487,0 98.815,44.328 98.815,98.815c0,54.487 -44.328,98.815 -98.815,98.815z"/>
   </g>
  </g>
  <g id="svg_4"/>
  <g id="svg_5"/>
  <g id="svg_6"/>
  <g id="svg_7"/>
  <g id="svg_8"/>
  <g id="svg_9"/>
  <g id="svg_10"/>
  <g id="svg_11"/>
  <g id="svg_12"/>
  <g id="svg_13"/>
  <g id="svg_14"/>
  <g id="svg_15"/>
  <g id="svg_16"/>
  <g id="svg_17"/>
  <g id="svg_18"/>
 </g>
</svg>