<svg width="512.00663" height="512" xmlns="http://www.w3.org/2000/svg" xmlns:svg="http://www.w3.org/2000/svg">
 <g fill="#ffffff">
  <title>Layer 1</title>
  <path id="svg_1" d="m256.23828,288.00391c-4.42187,0 -8.03906,-3.57422 -8.03906,-8c0,-4.42188 3.53515,-8 7.95312,-8l0.08594,0c4.41797,0 8,3.57812 8,8c0,4.42578 -3.58203,8 -8,8zm0,0"/>
  <path id="svg_2" d="m256.23828,328.00391c-4.42187,0 -8.03906,-3.57422 -8.03906,-8c0,-4.42188 3.53515,-8 7.95312,-8l0.08594,0c4.41797,0 8,3.57812 8,8c0,4.42578 -3.58203,8 -8,8zm0,0"/>
  <path id="svg_3" d="m256.23828,368.00391c-4.42187,0 -8.03906,-3.57422 -8.03906,-8c0,-4.42188 3.53515,-8 7.95312,-8l0.08594,0c4.41797,0 8,3.57812 8,8c0,4.42578 -3.58203,8 -8,8zm0,0"/>
  <path id="svg_4" d="m256.23828,408.00391c-4.42187,0 -8.03906,-3.57422 -8.03906,-8c0,-4.42188 3.53515,-8 7.95312,-8l0.08594,0c4.41797,0 8,3.57812 8,8c0,4.42578 -3.58203,8 -8,8zm0,0"/>
  <path id="svg_5" d="m448.23828,344.00391c-4.42187,0 -8.03906,-3.57422 -8.03906,-8c0,-4.42188 3.53515,-8 7.95312,-8l0.08594,0c4.41797,0 8,3.57812 8,8c0,4.42578 -3.58203,8 -8,8zm0,0"/>
  <path id="svg_6" d="m256,216.00391c-44.11328,0 -80,-35.88672 -80,-80c0,-4.42188 3.57422,-8 8,-8s8,3.57812 8,8c0,35.28906 28.71094,64 64,64s64,-28.71094 64,-64c0,-4.42188 3.57422,-8 8,-8s8,3.57812 8,8c0,44.11328 -35.88672,80 -80,80zm0,0"/>
  <path id="svg_7" d="m184,144.00391c-4.42578,0 -8,-3.57422 -8,-8l0,-56c0,-4.42188 3.57422,-8 8,-8s8,3.57812 8,8l0,56c0,4.42578 -3.57422,8 -8,8zm0,0"/>
  <path id="svg_8" d="m328,144.00391c-4.42578,0 -8,-3.57422 -8,-8l0,-56.00782c0,-4.42187 3.57422,-8 8,-8s8,3.57813 8,8l0,56.00782c0,4.42578 -3.57422,8 -8,8zm0,0"/>
  <path id="svg_9" d="m80,384.00391c-4.42578,0 -8,-3.57422 -8,-8c0,-4.42188 3.57422,-8 8,-8c30.87109,0 56,-25.125 56,-56c0,-4.42188 3.57422,-8 8,-8s8,3.57812 8,8c0,39.70703 -32.29687,72 -72,72zm0,0"/>
  <path id="svg_10" d="m144,304.00391c-4.42578,0 -8,-3.57422 -8,-8c0,-44.10938 35.88672,-79.98829 80,-79.98829c4.42578,0 8,3.57422 8,8c0,4.42188 -3.57422,8 -8,8c-35.28906,0 -64,28.70313 -64,63.98829c0,4.42578 -3.57422,8 -8,8zm0,0"/>
  <path id="svg_11" d="m80,424.00391c-4.42578,0 -8,-3.57422 -8,-8c0,-4.42188 3.57422,-8 8,-8c52.9375,0 96,-43.0625 96,-96c0,-4.42188 3.57422,-8 8,-8s8,3.57812 8,8c0,61.76172 -50.23828,112 -112,112zm0,0"/>
  <path id="svg_12" d="m76,424.00391c-15.44141,0 -28,-12.5586 -28,-28c0,-15.4375 12.55859,-28 28,-28c4.42578,0 8,3.57812 8,8c0,4.42578 -3.57422,8 -8,8c-6.61719,0 -12,5.38672 -12,12c0,6.61718 5.38281,12 12,12c4.42578,0 8,3.57812 8,8c0,4.42578 -3.57422,8 -8,8zm0,0"/>
  <path id="svg_13" d="m144,320.00391c-4.42578,0 -8,-3.57422 -8,-8l0,-16c0,-4.42188 3.57422,-8 8,-8s8,3.57812 8,8l0,16c0,4.42578 -3.57422,8 -8,8zm0,0"/>
  <path id="svg_14" d="m184,432.00391c-4.42578,0 -8,-3.57422 -8,-8l0,-112c0,-4.42188 3.57422,-8 8,-8s8,3.57812 8,8l0,112c0,4.42578 -3.57422,8 -8,8zm0,0"/>
  <path id="svg_15" d="m80,424.00391l-4,0c-4.42578,0 -8,-3.57422 -8,-8c0,-4.42188 3.57422,-8 8,-8l4,0c4.42578,0 8,3.57812 8,8c0,4.42578 -3.57422,8 -8,8zm0,0"/>
  <path id="svg_16" d="m80,384.00391l-4,0c-4.42578,0 -8,-3.57422 -8,-8c0,-4.42188 3.57422,-8 8,-8l4,0c4.42578,0 8,3.57812 8,8c0,4.42578 -3.57422,8 -8,8zm0,0"/>
  <path id="svg_17" d="m432,384.00391c-39.70312,0 -72,-32.29297 -72,-72c0,-4.42188 3.57422,-8 8,-8s8,3.57812 8,8c0,30.875 25.12891,56 56,56c4.42578,0 8,3.57812 8,8c0,4.42578 -3.57422,8 -8,8zm0,0"/>
  <path id="svg_18" d="m368,304.00391c-4.42578,0 -8,-3.57422 -8,-8c0,-35.28516 -28.71094,-63.98829 -64,-63.98829c-4.42578,0 -8,-3.57812 -8,-8c0,-4.42578 3.57422,-8 8,-8c44.11328,0 80,35.87891 80,79.98829c0,4.42578 -3.57422,8 -8,8zm0,0"/>
  <path id="svg_19" d="m432,424.00391c-61.76172,0 -112,-50.23828 -112,-112c0,-4.42188 3.57422,-8 8,-8s8,3.57812 8,8c0,52.9375 43.0625,96 96,96c4.42578,0 8,3.57812 8,8c0,4.42578 -3.57422,8 -8,8zm0,0"/>
  <path id="svg_20" d="m436,424.00391c-4.42578,0 -8,-3.57422 -8,-8c0,-4.42188 3.57422,-8 8,-8c6.61719,0 12,-5.38282 12,-12c0,-6.61328 -5.38281,-12 -12,-12c-4.42578,0 -8,-3.57422 -8,-8c0,-4.42188 3.57422,-8 8,-8c15.44141,0 28,12.5625 28,28c0,15.4414 -12.55859,28 -28,28zm0,0"/>
  <path id="svg_21" d="m368,320.00391c-4.42578,0 -8,-3.57422 -8,-8l0,-16c0,-4.42188 3.57422,-8 8,-8s8,3.57812 8,8l0,16c0,4.42578 -3.57422,8 -8,8zm0,0"/>
  <path id="svg_22" d="m328,432.00391c-4.42578,0 -8,-3.57422 -8,-8l0,-112c0,-4.42188 3.57422,-8 8,-8s8,3.57812 8,8l0,112c0,4.42578 -3.57422,8 -8,8zm0,0"/>
  <path id="svg_23" d="m436,424.00391l-4,0c-4.42578,0 -8,-3.57422 -8,-8c0,-4.42188 3.57422,-8 8,-8l4,0c4.42578,0 8,3.57812 8,8c0,4.42578 -3.57422,8 -8,8zm0,0"/>
  <path id="svg_24" d="m436,384.00391l-4,0c-4.42578,0 -8,-3.57422 -8,-8c0,-4.42188 3.57422,-8 8,-8l4,0c4.42578,0 8,3.57812 8,8c0,4.42578 -3.57422,8 -8,8zm0,0"/>
  <path id="svg_25" d="m328,432.00391c-4.42578,0 -8,-3.57422 -8,-8l0,-112c0,-4.42188 3.57422,-8 8,-8s8,3.57812 8,8l0,112c0,4.42578 -3.57422,8 -8,8zm0,0"/>
  <path id="svg_26" d="m272,248.00391c-2.04687,0 -4.09766,-0.78125 -5.65625,-2.34375c-3.12891,-3.125 -3.12891,-8.1836 0,-11.3086l16,-16c3.12891,-3.1289 8.18359,-3.1289 11.3125,0c3.12891,3.125 3.12891,8.1836 0,11.3086l-16,16c-1.55859,1.5625 -3.60937,2.34375 -5.65625,2.34375zm0,0"/>
  <path id="svg_27" d="m271.99219,248.00391c-1.19922,0 -2.42578,-0.26953 -3.56641,-0.83985l-16,-8c-3.95312,-1.97265 -5.55469,-6.78125 -3.57812,-10.73437c1.98437,-3.95313 6.79296,-5.53516 10.73828,-3.57422l16,8c3.94922,1.97266 5.55078,6.78125 3.57422,10.73437c-1.40625,2.80079 -4.23047,4.41407 -7.16797,4.41407zm0,0"/>
  <path id="svg_28" d="m240.00781,248.00391c-2.9375,0 -5.76172,-1.61328 -7.16797,-4.42188c-1.97656,-3.95312 -0.375,-8.76172 3.57422,-10.73437l16,-8c3.94532,-1.96094 8.75391,-0.37891 10.73828,3.57422c1.97657,3.95312 0.375,8.76171 -3.57812,10.73437l-16,8c-1.14063,0.57813 -2.36719,0.84766 -3.56641,0.84766zm0,0"/>
  <path id="svg_29" d="m240,248.00391c-2.04687,0 -4.09766,-0.78125 -5.65625,-2.34375l-16,-16c-3.12891,-3.125 -3.12891,-8.1836 0,-11.3086c3.12891,-3.1289 8.18359,-3.1289 11.3125,0l16,16c3.12891,3.125 3.12891,8.1836 0,11.3086c-1.55859,1.5625 -3.60937,2.34375 -5.65625,2.34375zm0,0"/>
  <path id="svg_30" d="m224,232.00391c-4.42578,0 -8,-3.57422 -8,-8l0,-23.49219c0,-4.42578 3.57422,-8 8,-8s8,3.57422 8,8l0,23.49219c0,4.42578 -3.57422,8 -8,8zm0,0"/>
  <path id="svg_31" d="m288,232.00391c-4.42578,0 -8,-3.57422 -8,-8l0,-23.49219c0,-4.42578 3.57422,-8 8,-8s8,3.57422 8,8l0,23.49219c0,4.42578 -3.57422,8 -8,8zm0,0"/>
  <path id="svg_32" d="m376,232.00391c-4.42578,0 -8,-3.57422 -8,-8c0,-4.42188 3.57422,-8 8,-8c26.47266,0 48,-21.52735 48,-48c0,-4.42188 3.57422,-8 8,-8s8,3.57812 8,8c0,35.28906 -28.71094,64 -64,64zm0,0"/>
  <path id="svg_33" d="m376,272.00391c-4.42578,0 -8,-3.57422 -8,-8c0,-4.42188 3.57422,-8 8,-8c48.51953,0 88,-39.47657 88,-88c0,-4.42188 3.57422,-8 8,-8s8,3.57812 8,8c0,57.34765 -46.65625,104 -104,104zm0,0"/>
  <path id="svg_34" d="m472,172.00391c-4.42578,0 -8,-3.57422 -8,-8c0,-6.61328 -5.38281,-12 -12,-12s-12,5.38672 -12,12c0,4.42578 -3.57422,8 -8,8s-8,-3.57422 -8,-8c0,-15.4375 12.55859,-28 28,-28s28,12.5625 28,28c0,4.42578 -3.57422,8 -8,8zm0,0"/>
  <path id="svg_35" d="m472,176.00391c-4.42578,0 -8,-3.57422 -8,-8l0,-4c0,-4.42188 3.57422,-8 8,-8s8,3.57812 8,8l0,4c0,4.42578 -3.57422,8 -8,8zm0,0"/>
  <path id="svg_36" d="m432,176.00391c-4.42578,0 -8,-3.57422 -8,-8l0,-4c0,-4.42188 3.57422,-8 8,-8s8,3.57812 8,8l0,4c0,4.42578 -3.57422,8 -8,8zm0,0"/>
  <path id="svg_37" d="m376,232.01563l-88,0c-4.42578,0 -8,-3.57813 -8,-8c0,-4.42579 3.57422,-8 8,-8l88,0c4.42578,0 8,3.57421 8,8c0,4.42187 -3.57422,8 -8,8zm0,0"/>
  <path id="svg_38" d="m376,272.00391l-15.48047,0c-4.42187,0 -8,-3.57422 -8,-8c0,-4.42188 3.57813,-8 8,-8l15.48047,0c4.42578,0 8,3.57812 8,8c0,4.42578 -3.57422,8 -8,8zm0,0"/>
  <path id="svg_39" d="m136,232.00391c-35.28906,0 -64,-28.71094 -64,-64c0,-4.42188 3.57422,-8 8,-8s8,3.57812 8,8c0,26.47265 21.52734,48 48,48c4.42578,0 8,3.57812 8,8c0,4.42578 -3.57422,8 -8,8zm0,0"/>
  <path id="svg_40" d="m136,272.00391c-57.34375,0 -104,-46.65235 -104,-104c0,-4.42188 3.57422,-8 8,-8s8,3.57812 8,8c0,48.52343 39.48047,88 88,88c4.42578,0 8,3.57812 8,8c0,4.42578 -3.57422,8 -8,8zm0,0"/>
  <path id="svg_41" d="m80,172.00391c-4.42578,0 -8,-3.57422 -8,-8c0,-6.61328 -5.38281,-12 -12,-12s-12,5.38672 -12,12c0,4.42578 -3.57422,8 -8,8s-8,-3.57422 -8,-8c0,-15.4375 12.55859,-28 28,-28s28,12.5625 28,28c0,4.42578 -3.57422,8 -8,8zm0,0"/>
  <path id="svg_42" d="m40,176.00391c-4.42578,0 -8,-3.57422 -8,-8l0,-4c0,-4.42188 3.57422,-8 8,-8s8,3.57812 8,8l0,4c0,4.42578 -3.57422,8 -8,8zm0,0"/>
  <path id="svg_43" d="m80,176.00391c-4.42578,0 -8,-3.57422 -8,-8l0,-4c0,-4.42188 3.57422,-8 8,-8s8,3.57812 8,8l0,4c0,4.42578 -3.57422,8 -8,8zm0,0"/>
  <path id="svg_44" d="m224,232.01563l-88,0c-4.42578,0 -8,-3.57813 -8,-8c0,-4.42579 3.57422,-8 8,-8l88,0c4.42578,0 8,3.57421 8,8c0,4.42187 -3.57422,8 -8,8zm0,0"/>
  <path id="svg_45" d="m151.48047,272.00391l-15.48047,0c-4.42578,0 -8,-3.57422 -8,-8c0,-4.42188 3.57422,-8 8,-8l15.48047,0c4.42187,0 8,3.57812 8,8c0,4.42578 -3.58594,8 -8,8zm0,0"/>
  <path id="svg_46" d="m80,360.00391l-48,0c-4.42578,0 -8,-3.57422 -8,-8l0,-64c0,-4.42188 3.57422,-8 8,-8l48,0c4.42578,0 8,3.57812 8,8l0,64c0,4.42578 -3.57422,8 -8,8zm-40,-16l32,0l0,-48l-32,0l0,48zm0,0"/>
  <path id="svg_47" d="m472,360.00391l-48,0c-4.42578,0 -8,-3.57422 -8,-8l0,-72c0,-4.42188 3.57422,-8 8,-8l48,0c4.42578,0 8,3.57812 8,8l0,72c0,4.42578 -3.57422,8 -8,8zm-40,-16l32,0l0,-56l-32,0l0,56zm0,0"/>
  <path id="svg_48" d="m104,344.00391l-24,0c-4.42578,0 -8,-3.57422 -8,-8l0,-31.98828c0,-4.42579 3.57422,-8 8,-8l24,0c4.42578,0 8,3.57421 8,8l0,31.98828c0,4.42578 -3.57422,8 -8,8zm-16,-16l8,0l0,-15.98828l-8,0l0,15.98828zm0,0"/>
  <path id="svg_49" d="m104,128.00391l-96,0c-4.42578,0 -8,-3.57422 -8,-8l0,-112c0,-4.42188 3.57422,-8 8,-8l96,0c4.42578,0 8,3.57812 8,8l0,112c0,4.42578 -3.57422,8 -8,8zm-88,-16l80,0l0,-96l-80,0l0,96zm0,0"/>
  <path id="svg_50" d="m40.00781,40.00391c-2.58203,0 -5.1289,-1.2461 -6.66406,-3.5586l-16,-23.99218c-2.45703,-3.67188 -1.46484,-8.64063 2.21484,-11.09375c3.66407,-2.45704 8.64844,-1.46485 11.09766,2.21484l16,23.99219c2.45703,3.67187 1.46484,8.64062 -2.21484,11.09375c-1.36328,0.90625 -2.91407,1.34375 -4.4336,1.34375zm0,0"/>
  <path id="svg_51" d="m72,40.00391l-32,0c-4.42578,0 -8,-3.57422 -8,-8c0,-4.42188 3.57422,-8 8,-8l32,0c4.42578,0 8,3.57812 8,8c0,4.42578 -3.57422,8 -8,8zm0,0"/>
  <path id="svg_52" d="m71.99219,40.00391c-1.51953,0 -3.0625,-0.4375 -4.4336,-1.34375c-3.67968,-2.45313 -4.67187,-7.41407 -2.21484,-11.09375l16,-24c2.44922,-3.67188 7.39844,-4.67188 11.09766,-2.21485c3.67968,2.45313 4.67187,7.41407 2.21484,11.09375l-16,24c-1.53516,2.3125 -4.08203,3.5586 -6.66406,3.5586zm0,0"/>
  <path id="svg_53" d="m72,72.00391l-32,0c-4.42578,0 -8,-3.57422 -8,-8c0,-4.42188 3.57422,-8 8,-8l32,0c4.42578,0 8,3.57812 8,8c0,4.42578 -3.57422,8 -8,8zm0,0"/>
  <path id="svg_54" d="m72,96.00391l-32,0c-4.42578,0 -8,-3.57422 -8,-8c0,-4.42188 3.57422,-8 8,-8l32,0c4.42578,0 8,3.57812 8,8c0,4.42578 -3.57422,8 -8,8zm0,0"/>
  <path id="svg_55" d="m504,112.00391l-112,0c-4.42578,0 -8,-3.57422 -8,-8l0,-72c0,-4.42188 3.57422,-8 8,-8l112,0c4.42578,0 8,3.57812 8,8l0,72c0,4.42578 -3.57422,8 -8,8zm-104,-16l96,0l0,-56l-96,0l0,56zm0,0"/>
  <path id="svg_56" d="m448,88.00391c-1.83984,0 -3.69531,-0.62891 -5.19922,-1.92578l-56,-48c-3.35937,-2.8711 -3.7539,-7.92188 -0.86328,-11.27344c2.87109,-3.35938 7.92578,-3.74219 11.26953,-0.86328l56,48c3.35938,2.87109 3.75391,7.92187 0.86328,11.27343c-1.57422,1.84766 -3.82422,2.78907 -6.07031,2.78907zm0,0"/>
  <path id="svg_57" d="m448,88.00391c-2.24609,0 -4.49609,-0.94141 -6.07031,-2.79688c-2.88281,-3.35156 -2.4961,-8.40234 0.86328,-11.27344l56,-48c3.36719,-2.87109 8.40625,-2.48828 11.27734,0.8711c2.88282,3.35156 2.4961,8.40234 -0.86328,11.27344l-56,48c-1.51172,1.29687 -3.36719,1.92578 -5.20703,1.92578zm0,0"/>
  <path id="svg_58" d="m504,112.00391c-1.83984,0 -3.69531,-0.62891 -5.19922,-1.92578l-41.96875,-35.97657c-3.35937,-2.87109 -3.7539,-7.91797 -0.86328,-11.27343c2.87109,-3.36719 7.92578,-3.74219 11.26953,-0.86329l41.96875,35.97657c3.35938,2.87109 3.75391,7.92187 0.86328,11.27343c-1.57422,1.84766 -3.82422,2.78907 -6.07031,2.78907zm0,0"/>
  <path id="svg_59" d="m392,112.00391c-2.24609,0 -4.49609,-0.94141 -6.07031,-2.79688c-2.88281,-3.35156 -2.4961,-8.40234 0.86328,-11.27344l42,-36c3.35156,-2.86328 8.40625,-2.5039 11.26953,0.86329c2.88281,3.35156 2.49609,8.40234 -0.86328,11.27343l-42,36c-1.50391,1.30469 -3.35938,1.9336 -5.19922,1.9336zm0,0"/>
  <path id="svg_60" d="m328,87.99609c-4.42578,0 -8,-3.57421 -8,-8c0,-13.22265 -10.76953,-23.99218 -24,-23.99218c-4.42578,0 -8,-3.57422 -8,-8c0,-4.42188 3.57422,-8 8,-8c22.05469,0 40,17.9375 40,39.99218c0,4.42579 -3.57422,8 -8,8zm0,0"/>
  <path id="svg_61" d="m296,56.00391c-4.42578,0 -8,-3.57422 -8,-8l0,-32c0,-4.42188 3.57422,-8 8,-8s8,3.57812 8,8l0,32c0,4.42578 -3.57422,8 -8,8zm0,0"/>
  <path id="svg_62" d="m184,88.00391c-4.42578,0 -8,-3.57422 -8,-8c0,-39.70313 32.29688,-72 72,-72c4.42578,0 8,3.57812 8,8c0,4.42578 -3.57422,8 -8,8c-30.87109,0 -56,25.1289 -56,56c0,4.42578 -3.57422,8 -8,8zm0,0"/>
  <path id="svg_63" d="m327.99219,112.20703c-1.53516,0 -3.09766,-0.44922 -4.47266,-1.37109l-24,-16.19922c-3.66406,-2.48047 -4.625,-7.44531 -2.16015,-11.10938c2.48046,-3.65625 7.4414,-4.61718 11.11328,-2.16015l24,16.19922c3.66406,2.48047 4.625,7.44922 2.16015,11.11328c-1.54297,2.29297 -4.07422,3.52734 -6.64062,3.52734zm0,0"/>
  <path id="svg_64" d="m260,104.00391c-28.89453,0 -53.49609,-8.0625 -54.51953,-8.40625c-4.18359,-1.39844 -6.45703,-5.91797 -5.07422,-10.11328c1.39453,-4.1836 5.92188,-6.46875 10.11328,-5.07813c0.23438,0.08594 23.26563,7.59766 49.48047,7.59766c25.42578,0 40.32031,-7.10157 40.47266,-7.17578c3.9414,-1.91797 8.75,-0.29297 10.69531,3.65625c1.94531,3.95312 0.34375,8.72265 -3.59375,10.6875c-0.73438,0.35546 -18.08594,8.83203 -47.57422,8.83203zm0,0"/>
  <path id="svg_65" d="m184.00781,112.20703c-2.5664,0 -5.09765,-1.23437 -6.64062,-3.51953c-2.47266,-3.66406 -1.50391,-8.63281 2.16015,-11.11328l24,-16.19922c3.67969,-2.46484 8.64063,-1.50391 11.11329,2.16016c2.47265,3.66406 1.5039,8.6289 -2.16016,11.10937l-24,16.20313c-1.375,0.91797 -2.9375,1.35937 -4.47266,1.35937zm0,0"/>
  <path id="svg_66" d="m296,24.00391l-48,0c-4.42578,0 -8,-3.57422 -8,-8c0,-4.42188 3.57422,-8 8,-8l48,0c4.42578,0 8,3.57812 8,8c0,4.42578 -3.57422,8 -8,8zm0,0"/>
 </g>
</svg>