<svg width="512" height="512" xmlns="http://www.w3.org/2000/svg" xmlns:svg="http://www.w3.org/2000/svg">
 <g fill="#ffffff">
  <title>Layer 1</title>
  <g id="svg_1">
   <g id="svg_2">
    <path id="svg_3" d="m282.208,19.67c-3.648,-3.008 -8.48,-4.256 -13.152,-3.392l-256,48c-7.584,1.408 -13.056,8 -13.056,15.712l0,352c0,7.68 5.472,14.304 13.056,15.712l256,48c0.96,0.192 1.984,0.288 2.944,0.288c3.68,0 7.328,-1.28 10.208,-3.68c3.68,-3.04 5.792,-7.584 5.792,-12.32l0,-448c0,-4.768 -2.112,-9.28 -5.792,-12.32zm-26.208,441.024l-224,-41.984l0,-325.44l224,-41.984l0,409.408z"/>
   </g>
  </g>
  <g id="svg_4">
   <g id="svg_5">
    <path id="svg_6" d="m144,175.99c-44.096,0 -80,43.072 -80,96s35.904,96 80,96s80,-43.072 80,-96s-35.904,-96 -80,-96zm0,160c-26.464,0 -48,-28.704 -48,-64c0,-35.296 21.536,-64 48,-64s48,28.704 48,64s-21.536,64 -48,64z"/>
   </g>
  </g>
  <g id="svg_7">
   <g id="svg_8">
    <path id="svg_9" d="m496,111.99l-224,0c-8.832,0 -16,7.168 -16,16s7.168,16 16,16l208,0l0,224l-208,0c-8.832,0 -16,7.168 -16,16c0,8.832 7.168,16 16,16l224,0c8.832,0 16,-7.168 16,-16l0,-256c0,-8.832 -7.168,-16 -16,-16z"/>
   </g>
  </g>
  <g id="svg_10">
   <g id="svg_11">
    <path id="svg_12" d="m508.608,118.134c-5.472,-6.976 -15.52,-8.256 -22.432,-2.784l-135.136,105.088l-70.464,-44.832c-7.392,-4.704 -17.312,-2.528 -22.08,4.928c-4.736,7.456 -2.528,17.344 4.896,22.08l80,50.88c2.624,1.664 5.632,2.496 8.608,2.496c3.456,0 6.944,-1.12 9.792,-3.392l144,-112c7.008,-5.44 8.256,-15.488 2.816,-22.464z"/>
   </g>
  </g>
  <g id="svg_13"/>
  <g id="svg_14"/>
  <g id="svg_15"/>
  <g id="svg_16"/>
  <g id="svg_17"/>
  <g id="svg_18"/>
  <g id="svg_19"/>
  <g id="svg_20"/>
  <g id="svg_21"/>
  <g id="svg_22"/>
  <g id="svg_23"/>
  <g id="svg_24"/>
  <g id="svg_25"/>
  <g id="svg_26"/>
  <g id="svg_27"/>
 </g>
</svg>