<svg width="485" height="90" xmlns="http://www.w3.org/2000/svg">
 <g id="Layer_1">
  <title>Layer 1</title>
  <g id="svg_2">
   <g data-name="Layer 2" id="svg_1">
    <path fill="#ffffff" d="m147.2,63.5a2.8,2.8 0 0 1 -1.8,2.7a14.1,14.1 0 0 1 -6.4,1.4c-3.7,0 -11.3,-0.6 -11.3,-10.2l0,-24.1l-5.5,0a1.4,1.4 0 0 1 -1.5,-1.4a1.7,1.7 0 0 1 0.7,-1.4l10.5,-10.3c0.3,-0.2 0.7,-0.7 1.3,-0.7a1.5,1.5 0 0 1 1.5,1.6l0,6.2l8.8,0a3,3 0 0 1 0,6l-8.8,0l0,23.4c0,4.6 3.1,4.7 5.1,4.7s3.3,-0.7 4.6,-0.7a2.9,2.9 0 0 1 2.8,2.8z" class="cls-1" id="svg_3"/>
    <path fill="#ffffff" d="m188.6,61.3a3.4,3.4 0 0 1 -2,2.9c-3.4,1.9 -6.8,3.4 -13.6,3.4c-12.6,0 -20.1,-7.5 -20.1,-20.5c0,-10.5 5.7,-20.6 18.6,-20.6s18.4,9.2 18.4,19.5a3.4,3.4 0 0 1 -3.6,3.5l-26.2,0c0.7,7 5.2,11.5 13.5,11.5a20.9,20.9 0 0 0 10.5,-2.4a3.2,3.2 0 0 1 1.4,-0.3a3,3 0 0 1 3.1,3zm-28.5,-17.5l22.8,0c-0.4,-8.1 -6.5,-11.3 -11.4,-11.3s-11,3.2 -11.4,11.3z" class="cls-1" id="svg_4"/>
    <path fill="#ffffff" d="m232.2,61.2a3.4,3.4 0 0 1 -1.6,2.7a21.9,21.9 0 0 1 -12.6,3.7c-11,0 -20.7,-7.6 -20.7,-20.5s9.7,-20.6 20.7,-20.6a21.9,21.9 0 0 1 12.6,3.7a3.5,3.5 0 0 1 1.6,2.7a3.2,3.2 0 0 1 -3,3.1a2.8,2.8 0 0 1 -1.7,-0.4c-2.7,-1.4 -4.9,-2.5 -8.9,-2.5c-9,0 -14.3,5.7 -14.3,14s5.3,13.9 14.3,13.9c4,0 6.2,-1.1 8.9,-2.5a2.8,2.8 0 0 1 1.7,-0.4a3.2,3.2 0 0 1 3,3.1z" class="cls-1" id="svg_5"/>
    <path fill="#ffffff" d="m277.1,41.7l0,22a3.5,3.5 0 0 1 -3.6,3.5a3.4,3.4 0 0 1 -3.4,-3.5l0,-21.2c0,-5.9 -2.5,-9.5 -8.6,-9.5s-9.6,3.6 -12.7,7.5l0,23.2a3.5,3.5 0 0 1 -3.5,3.5a3.4,3.4 0 0 1 -3.5,-3.5l0,-50.3a3.5,3.5 0 0 1 3.5,-3.6a3.6,3.6 0 0 1 3.5,3.6l0,20.2c3.3,-3.5 7.5,-7.1 14.4,-7.1c8.9,0 13.9,6.9 13.9,15.2z" class="cls-1" id="svg_6"/>
    <path fill="#ffffff" d="m324.7,41.7l0,22a3.5,3.5 0 0 1 -3.6,3.5a3.4,3.4 0 0 1 -3.4,-3.5l0,-21.2c0,-5.9 -2.5,-9.5 -8.6,-9.5s-9.6,3.6 -12.7,7.5l0,23.2a3.5,3.5 0 0 1 -3.5,3.5a3.4,3.4 0 0 1 -3.5,-3.5l0,-33.2a3.5,3.5 0 0 1 3.5,-3.6a3.6,3.6 0 0 1 3.5,3.6l0,3.1c3.3,-3.5 7.5,-7.1 14.4,-7.1c8.9,0 13.9,6.9 13.9,15.2z" class="cls-1" id="svg_7"/>
    <path fill="#ffffff" d="m370.3,61.3a3.4,3.4 0 0 1 -2,2.9c-3.4,1.9 -6.8,3.4 -13.6,3.4c-12.6,0 -20.1,-7.5 -20.1,-20.5c0,-10.5 5.7,-20.6 18.6,-20.6s18.4,9.2 18.4,19.5a3.4,3.4 0 0 1 -3.6,3.5l-26.2,0c0.7,7 5.2,11.5 13.5,11.5a20.9,20.9 0 0 0 10.5,-2.4a3.2,3.2 0 0 1 1.4,-0.3a3,3 0 0 1 3.1,3zm-28.5,-17.5l22.8,0c-0.4,-8.1 -6.5,-11.3 -11.4,-11.3s-11,3.2 -11.4,11.3z" class="cls-1" id="svg_8"/>
    <path fill="#ffffff" d="m418.2,30.5l0,34.6c0,13 -6.6,20.3 -18.2,20.3c-6.3,0 -13,-1.9 -16.6,-4a2.8,2.8 0 0 1 -1.4,-2.7a3.2,3.2 0 0 1 3.1,-3.2a5.8,5.8 0 0 1 1.4,0.3a28.4,28.4 0 0 0 12.8,3c7.9,0 11.8,-4.3 11.8,-12.7l0,-5.2a17.3,17.3 0 0 1 -13.2,5.9c-8.6,0 -18.8,-6.4 -18.8,-20.1s10.2,-20.2 18.8,-20.2a17.3,17.3 0 0 1 13.2,5.9l0,-1.9a3.6,3.6 0 1 1 7.1,0zm-7.1,8.2c-2.8,-3 -6.4,-5.8 -11.7,-5.8c-7.4,0 -13.2,4.5 -13.2,13.8s5.8,13.7 13.2,13.7c5.3,0 8.9,-2.8 11.7,-5.7l0,-16z" class="cls-1" id="svg_9"/>
    <path fill="#ffffff" d="m438.9,15.3a4,4 0 0 1 -4,3.9l-0.4,0a4,4 0 0 1 -4,-3.9l0,-0.3a4,4 0 0 1 4,-4l0.4,0a4,4 0 0 1 4,4l0,0.3zm-0.7,15.2l0,33.2a3.6,3.6 0 0 1 -7.1,0l0,-33.2a3.6,3.6 0 1 1 7.1,0z" class="cls-1" id="svg_10"/>
    <path fill="#ffffff" d="m483.5,61.2a3.4,3.4 0 0 1 -1.6,2.7a21.9,21.9 0 0 1 -12.6,3.7c-11,0 -20.7,-7.6 -20.7,-20.5s9.7,-20.6 20.7,-20.6a21.9,21.9 0 0 1 12.6,3.7a3.5,3.5 0 0 1 1.6,2.7a3.2,3.2 0 0 1 -3,3.1a2.8,2.8 0 0 1 -1.7,-0.4c-2.7,-1.4 -4.9,-2.5 -8.9,-2.5c-9,0 -14.3,5.7 -14.3,14s5.3,13.9 14.3,13.9c4,0 6.2,-1.1 8.9,-2.5a2.8,2.8 0 0 1 1.7,-0.4a3.2,3.2 0 0 1 3,3.1z" class="cls-1" id="svg_11"/>
    <circle fill="#ce1879" r="12.2" cy="76.2" cx="44.8" class="cls-2" id="svg_12"/>
    <circle fill="#322f80" r="12.2" cy="45" cx="44.8" class="cls-1" id="svg_13"/>
    <circle fill="#00a5b8" r="12.2" cy="13.8" cx="44.8" class="cls-3" id="svg_14"/>
    <circle fill="#00a5b8" r="12.2" cy="45" cx="76" class="cls-3" id="svg_15"/>
    <circle fill="#00a5b8" r="12.2" cy="13.8" cx="76" class="cls-3" id="svg_16"/>
    <circle fill="#ce1879" r="12.2" cy="76.2" cx="13.7" class="cls-2" id="svg_17"/>
    <circle fill="#ce1879" r="12.2" cy="45" cx="13.7" class="cls-2" id="svg_18"/>
   </g>
  </g>
 </g>

</svg>