<?xml version="1.0" encoding="UTF-8"?>
<svg width="77px" height="21px" viewBox="0 0 77 21" version="1.1" xmlns="http://www.w3.org/2000/svg" xmlns:xlink="http://www.w3.org/1999/xlink">
    <!-- Generator: Sketch 55.2 (78181) - https://sketchapp.com -->
    <title>Menu Bar_new</title>
    <desc>Created with Sketch.</desc>
    <g id="Pricing-+-Onboarding" stroke="none" stroke-width="1" fill="none" fill-rule="evenodd">
        <g id="Tutorial-steps" transform="translate(-141.000000, -26.000000)">
            <g id="Menu-Bar_new" transform="translate(141.000000, 26.000000)">
                <g id="logo">
                    <g>
                        <path d="M75.4212974,3.09002665 C76.2682974,3.09002665 76.9410342,2.40952393 76.9410342,1.60062448 L76.9410342,1.59173547 C76.9410342,0.782836016 76.2774158,0.110234636 75.4212974,0.110234636 C74.5742974,0.110234636 73.9015605,0.791725021 73.9015605,1.60062448 L73.9015605,1.60852582 C73.9015605,2.41841294 74.5651789,3.09002665 75.4212974,3.09002665 L75.4212974,3.09002665 Z M75.4212974,2.92903689 C74.6523105,2.92903689 74.0748105,2.33347356 74.0748105,1.60852582 L74.0748105,1.60062448 C74.0748105,0.876664402 74.6614289,0.271224394 75.4212974,0.271224394 C76.1902842,0.271224394 76.7677842,0.867775397 76.7677842,1.59173547 L76.7677842,1.60062448 C76.7677842,2.32458455 76.1811658,2.92903689 75.4212974,2.92903689 L75.4212974,2.92903689 Z M74.8275868,2.32359689 L75.1234289,2.32359689 L75.1234289,1.80408393 L75.4476395,1.80408393 L75.8154158,2.32458455 L76.1720474,2.32458455 L75.7627316,1.7537129 C75.9714421,1.69445286 76.1193632,1.54037678 76.1193632,1.29345997 C76.1193632,0.978394126 75.8670868,0.817404369 75.5266658,0.817404369 L74.8275868,0.817404369 L74.8275868,2.32359689 Z M75.1234289,1.56605612 L75.1234289,1.07123485 L75.5003237,1.07123485 C75.7009289,1.07123485 75.8154158,1.15716189 75.8154158,1.31913932 C75.8154158,1.4643264 75.7009289,1.56605612 75.5003237,1.56605612 L75.1234289,1.56605612 Z" id="Fill-1" fill="#231F20"></path>
                        <polygon id="Fill-3" fill="#231F20" points="0 15.5766095 3.17321053 15.5766095 3.17321053 0.109740803 0 0.109740803"></polygon>
                        <path d="M13.88695,15.1179369 C13.2719632,15.3954714 12.0642789,15.7174509 10.6215421,15.7174509 C7.02381842,15.7174509 4.68038421,13.4576683 4.68038421,9.97416597 C4.68038421,6.60622074 7.04813421,3.97606292 11.0946868,3.97606292 C12.1585026,3.97606292 13.2466342,4.20717705 13.9102526,4.50644022 L13.3884763,6.62893708 C12.9153316,6.42251463 12.2294237,6.1914005 11.1889105,6.1914005 C8.96401579,6.1914005 7.63981842,7.7825324 7.66210789,9.83589256 C7.66210789,12.1420955 9.20109474,13.4576683 11.1889105,13.4576683 C12.2061211,13.4576683 12.9153316,13.2502582 13.4847263,13.019144 L13.88695,15.1179369 Z" id="Fill-4" fill="#231F20"></path>
                        <path d="M17.4181092,10.6429154 C17.4890303,12.6735593 19.1232539,13.5496201 20.9692276,13.5496201 C22.3187539,13.5496201 23.2883461,13.3649263 24.1637145,13.0429468 L24.5892408,15.0034662 C23.5953329,15.3955701 22.2225039,15.7175496 20.5670039,15.7175496 C16.8274382,15.7175496 14.6258461,13.457767 14.6258461,10.0196974 C14.6258461,6.90558267 16.5670566,3.97616168 20.2579908,3.97616168 C24.0198461,3.97616168 25.2275303,6.97570704 25.2275303,9.44388744 C25.2275303,9.97327707 25.1819382,10.3900726 25.1333066,10.6429154 L17.4181092,10.6429154 Z M22.4828855,8.65869199 C22.5061882,7.62164141 22.0320303,5.91396478 20.0928461,5.91396478 C18.2934776,5.91396478 17.5366487,7.50509668 17.4181092,8.65869199 L22.4828855,8.65869199 Z" id="Fill-6" fill="#231F20"></path>
                        <path d="M51.1047987,15.5414486 C51.1301276,14.8727979 51.2243513,13.9740207 51.3195882,13.0051191 L51.2486671,13.0051191 C50.1129171,15.080208 48.5982461,15.7962667 47.1311934,15.7962667 C45.0724566,15.7962667 43.7239434,14.2268635 43.7239434,11.9660932 C43.7239434,8.1369074 46.467575,4.0538911 51.8403513,4.0538911 C53.0946408,4.0538911 54.4441671,4.28401756 55.3175092,4.56155205 L54.1351539,10.4213817 C53.8038513,12.1043666 53.6133776,14.2041472 53.6620092,15.5414486 L51.1047987,15.5414486 Z M52.2415618,6.24552467 C51.9578776,6.17638796 51.6032724,6.1299676 51.1047987,6.1299676 C48.5506276,6.1299676 46.5861145,8.92111518 46.5861145,11.4821363 C46.5861145,12.658448 47.0369697,13.6273495 48.2416145,13.6273495 C49.5202197,13.6273495 51.0825092,12.0589339 51.626575,9.19864967 L52.2415618,6.24552467 Z" id="Fill-8" fill="#231F20"></path>
                        <path d="M55.5340211,15.5414486 L56.8835474,8.62185201 C57.1895211,7.02973244 57.3323763,5.32304348 57.4752316,4.30772157 L59.8652711,4.30772157 C59.79435,5.069213 59.7234289,5.85342078 59.6048895,6.68404891 L59.6747974,6.68404891 C60.4559421,5.16106605 61.7102316,4.0538911 63.2958237,4.0538911 C63.4852842,4.0538911 63.6980474,4.07660744 63.8875079,4.10031145 L63.3434421,6.72948161 C63.2016,6.70676526 63.0121395,6.68404891 62.8226789,6.68404891 C60.8581658,6.68404891 59.6048895,8.62185201 59.1550474,11.0208957 L58.2786658,15.5414486 L55.5340211,15.5414486 Z" id="Fill-10" fill="#231F20"></path>
                        <path d="M62.6368658,20.1100021 L64.88405,8.48318353 C65.1454447,7.14489444 65.4058263,5.39178512 65.5476684,4.26189381 L68.0319316,4.26189381 L67.7705368,6.15327655 L67.8191684,6.15327655 C68.8130763,4.81597513 70.2335237,4.05349603 71.7248921,4.05349603 C74.2081421,4.05349603 75.3682079,6.03771948 75.3682079,8.22935305 C75.3682079,12.1513796 72.5749316,15.7958717 68.6469184,15.7958717 C67.5820895,15.7958717 66.7776421,15.5647575 66.3531289,15.3119147 L66.3044974,15.3119147 L65.3815105,20.1100021 L62.6368658,20.1100021 Z M66.7533263,13.1657138 C67.1798658,13.512385 67.7958658,13.7197952 68.6003132,13.7197952 C70.7299711,13.7197952 72.4817211,10.9513639 72.4817211,8.43676317 C72.4817211,7.39773725 72.0085763,6.24611727 70.65905,6.24611727 C69.2619053,6.24611727 67.7472342,7.7908288 67.2518,10.4209866 L66.7533263,13.1657138 Z" id="Fill-12" fill="#231F20"></path>
                        <g id="Group-3" transform="translate(26.615497, 0.027435)" fill="#5586FF">
                            <path d="M8.82496871,0.100676212 L10.1339687,0.100676212 L5.19685029,14.0218457 C4.92431082,14.8751902 3.99524503,15.5685326 3.11886345,15.5685326 C3.11886345,15.5685326 1.90915292,15.5655696 1.88787661,15.5645819 L6.74698187,1.64736309 C7.01952135,0.793030936 7.94858713,0.100676212 8.82496871,0.100676212 Z M16.2291266,0.100676212 L19.4003108,0.100676212 L13.9221661,14.0218457 C13.6506398,14.8751902 12.7205608,15.5685326 11.8441792,15.5685326 C11.8441792,15.5685326 10.6395345,15.5655696 10.6212977,15.5655696 L16.2291266,0.100676212 Z M11.3427674,0.251394231 C11.8837937,0.49732337 12.2606885,1.026713 12.2606885,1.64795569 L12.2606885,7.75075146 L9.59000424,15.148379 C9.28099108,14.8668938 9.08747792,14.4668886 9.08747792,14.0224383 L9.08747792,6.49937709 L11.3427674,0.251394231 Z M3.53486608,7.48743938 L0.794273977,15.0786497 C0.52781345,14.8021028 0.361655556,14.4317276 0.361655556,14.0218457 L0.361655556,0.100676212 L3.53486608,0.100676212 L3.53486608,7.48743938 Z" id="Combined-Shape"></path>
                        </g>
                    </g>
                </g>
            </g>
        </g>
    </g>
</svg>