<svg width="100" height="18" xmlns="http://www.w3.org/2000/svg" xmlns:svg="http://www.w3.org/2000/svg">
 <g>
  <title>Layer 1</title>
  <g id="svg_1">
   <path id="svg_2" fill="#000000" d="m9.553,0.098c-1.93,0 -4.126,0.376 -5.976,1.202c-1.722,0.77 -3.139,2.006 -3.139,4.072c0,1.845 1.179,2.931 1.141,2.894c0.506,0.466 1.313,1.253 3.422,1.708c0.94,0.208 2.948,0.517 4.962,0.741c1.986,0.208 3.952,0.408 4.75,0.604c0.636,0.166 1.692,0.388 1.692,1.577c0,1.196 -1.12,1.555 -1.315,1.632c-0.201,0.079 -1.54,0.695 -3.965,0.695c-1.788,0 -3.931,-0.539 -4.716,-0.809c-0.894,-0.323 -1.839,-0.756 -2.726,-1.835c-0.218,-0.267 -0.551,-1.006 -0.551,-1.729l-2.208,0l0,6.13l2.436,0l0,-0.827c0,-0.083 0.128,-0.482 0.527,-0.288c0.507,0.238 1.999,0.823 3.568,1.143c1.272,0.266 2.098,0.459 3.684,0.459c2.597,0 3.993,-0.421 4.949,-0.695c0.924,-0.27 2.046,-0.736 2.944,-1.451c0.496,-0.387 1.569,-1.403 1.569,-3.225c0,-1.759 -0.934,-2.854 -1.272,-3.177c-0.449,-0.456 -0.992,-0.805 -1.568,-1.074c-0.511,-0.231 -1.295,-0.519 -1.94,-0.671c-1.262,-0.319 -4.096,-0.694 -5.443,-0.831c-1.418,-0.155 -3.892,-0.356 -4.871,-0.663c-0.302,-0.088 -0.914,-0.387 -0.914,-1.088c0,-0.5 0.288,-0.931 0.834,-1.283c0.867,-0.543 2.646,-0.877 4.473,-0.877c2.181,-0.004 4.022,0.478 5.19,1.007c0.398,0.192 0.862,0.438 1.237,0.739c0.42,0.341 1.001,1.05 1.213,2.035l1.969,0l0,-5.337l-2.191,0l0,0.618c0,0.203 -0.205,0.458 -0.604,0.252c-0.98,-0.523 -3.755,-1.633 -7.161,-1.648"/>
   <path id="svg_3" fill="#000000" d="m35.905,17.633c-3.603,0 -6.94,-1.086 -9.185,-3.096c-1.678,-1.517 -2.502,-3.574 -2.502,-5.686c0,-2.086 0.853,-4.173 2.502,-5.68c2.079,-1.885 5.745,-3.076 9.185,-3.076c3.834,0 6.882,0.968 9.212,3.085c1.662,1.515 2.465,3.574 2.465,5.671c0,2.03 -0.847,4.194 -2.465,5.686c-2.168,2.028 -5.589,3.096 -9.212,3.096m0,-2.311c1.93,0 3.698,-0.673 4.934,-1.899c1.234,-1.231 1.806,-2.73 1.806,-4.571c0,-1.774 -0.618,-3.412 -1.806,-4.583c-1.219,-1.202 -3.042,-1.89 -4.934,-1.89c-1.893,0 -3.706,0.678 -4.938,1.89c-1.174,1.171 -1.795,2.82 -1.795,4.583c0,1.752 0.629,3.396 1.795,4.571c1.231,1.224 3.045,1.899 4.938,1.899"/>
   <path id="svg_4" fill="#000000" d="m49.98,1.088l0,1.941l1.705,0c1.229,0 1.318,0.688 1.318,1.279l0,9.114c0,0.548 0.035,1.292 -0.755,1.292l-2.106,0l0,1.949l8.991,0l0,-1.949l-2.189,0c-0.872,0 -0.922,-0.391 -0.938,-1.251l0,-7.802l12.337,11.002l3.129,0l-0.164,-12.428c0.023,-0.9 0.069,-1.21 1.008,-1.21l1.962,0l0,-1.937l-9.151,0l0,1.937l2.013,0c0.917,0 1.082,0.365 1.09,1.21l0.112,6.501l-10.702,-9.648l-7.66,0"/>
   <path id="svg_5" fill="#000000" d="m82.835,14.714l0,1.949l10.676,0l0,-1.953l-2.021,0l-0.529,-0.034c-0.212,-0.054 -0.36,-0.203 -0.418,-0.362l-0.039,-0.43l0,-3.071l0.076,-0.293c0.142,-0.17 5.67,-6.476 5.923,-6.751c0.53,-0.613 0.824,-0.744 1.535,-0.744l1.962,0l0,-1.937l-8.797,0l0,1.937l1.32,0c0.389,0 0.5,0.397 0.334,0.606l-3.742,4.368l-0.107,-0.011l-3.643,-4.357c-0.262,-0.325 -0.045,-0.606 0.239,-0.606l1.295,0l0,-1.937l-10.738,0l0,1.937l1.916,0c0.828,0 1.367,0.525 1.682,0.87c0.252,0.271 5.715,6.469 5.844,6.646c0.139,0.169 0.139,0.196 0.139,0.272l0,3.071l-0.037,0.43c-0.085,0.159 -0.215,0.307 -0.425,0.362l-0.534,0.038l-1.911,0"/>
  </g>
 </g>
</svg>